# xmcd
#
# Track frame offsets:
#	150
#	16665
#	30894
#	44127
#	61595
#	78210
#	95802
#	113985
#	130320
#	144710
#	164537
#	179555
#
# Disc length: 2615 seconds
#
# Revision: 2
# Processed by: cddbd v1.5.2PL0 Copyright (c) Steve Scherf et al.
# Submitted via: EasyCDDAExtractor 15.3.0.1
#
DISCID=9e0a350c
DTITLE=Daniela Romo - Me Vuelves Loca
DYEAR=1999
DGENRE=Latin
TTITLE0=Mienteme
TTITLE1=Tu Eres Mi Destino
TTITLE2=Alma, Corazon Y Vida
TTITLE3=Y Hablame
TTITLE4=Poquito A Poquito
TTITLE5=Me Vuelves Loca
TTITLE6=Otra Vez
TTITLE7=Caminito
TTITLE8=Imagenes
TTITLE9=Mio, Siempre Mio
TTITLE10=Una Noche Contigo
TTITLE11=Quisiera Decir Tu Nombre
EXTD=YEAR: 1998
EXTT0=
EXTT1=
EXTT2=
EXTT3=
EXTT4=
EXTT5=
EXTT6=
EXTT7=
EXTT8=
EXTT9=
EXTT10=
EXTT11=
PLAYORDER=
